<svg xmlns="http://www.w3.org/2000/svg" x="0px" y="0px" width="100" height="100" viewBox="0 0 40 40">
<rect width="35" height="25" x="2.5" y="13.5" fill="#f2faff"></rect><path fill="#a3b7cc" d="M37,14v24H3V14H37 M38,13H2v26h36V13L38,13z"></path><rect width="34" height="4" x="3" y="34" fill="#e1ebf2"></rect><rect width="11" height="16" x="7.5" y="22.5" fill="#b6c9d6"></rect><path fill="#788b9c" d="M18,23v15H8V23H18 M19,22H7v17h12V22L19,22z"></path><rect width="9" height="8" x="23.5" y="22.5" fill="#c2e8ff"></rect><path fill="#7496c4" d="M32,23v7h-8v-7H32 M33,22H23v9h10V22L33,22z"></path><circle cx="16" cy="30" r="1" fill="#fff"></circle><path fill="#788b9c" d="M2,1v8h36V1H2z"></path><path fill="#f78f8f" d="M0,15.8c0,2.1,1.5,4,3.6,4.2C6,20.2,8,18.3,8,16c0,2.2,1.8,4,4,4s4-1.8,4-4c0,2.2,1.8,4,4,4 s4-1.8,4-4c0,2.2,1.8,4,4,4s4-1.8,4-4c0,2.3,2,4.2,4.4,4c2.1-0.2,3.6-2.1,3.6-4.2V12H0V15.8z"></path><polygon fill="#f7a8a8" points="40,12 0,12 2,8 38,8"></polygon><path fill="#c74343" d="M38,8h-1.1l2.1,4.2v3.6c0,1.6-1.2,3-2.7,3.2c-0.1,0-0.2,0-0.3,0c-1.7,0-3-1.3-3-3c0-0.6-0.4-1-1-1 c-0.6,0-1,0.4-1,1c0,1.7-1.3,3-3,3s-3-1.3-3-3c0-0.6-0.4-1-1-1s-1,0.4-1,1c0,1.7-1.3,3-3,3s-3-1.3-3-3c0-0.6-0.4-1-1-1s-1,0.4-1,1 c0,1.7-1.3,3-3,3s-3-1.3-3-3c0-0.6-0.4-1-1-1s-1,0.4-1,1c0,1.7-1.3,3-3,3c-0.1,0-0.2,0-0.3,0C2.2,18.8,1,17.5,1,15.8v-3.6L3.1,8H2 l-2,4v3.8c0,2.1,1.5,4,3.6,4.2c0.1,0,0.3,0,0.4,0c2.2,0,4-1.8,4-4c0,2.2,1.8,4,4,4s4-1.8,4-4c0,2.2,1.8,4,4,4s4-1.8,4-4 c0,2.2,1.8,4,4,4s4-1.8,4-4c0,2.2,1.8,4,4,4c0.1,0,0.3,0,0.4,0c2.1-0.2,3.6-2.1,3.6-4.2V12L38,8z"></path><circle cx="5.5" cy="4.5" r="1.5" fill="#c8d1db"></circle><circle cx="9.5" cy="4.5" r="1.5" fill="#c8d1db"></circle><rect width="39" height="1" x=".5" y="12" fill="#c74343"></rect><rect width="23" height="3" x="13" y="3" fill="#fff"></rect>
</svg>